<?xml version="1.0" encoding="UTF-8"?>
<svg id="Calque_2" data-name="Calque 2" xmlns="http://www.w3.org/2000/svg" viewBox="0 0 59.67 59.67">
  <defs>
    <style>
      .cls-1, .cls-2 {
        stroke-width: 0px;
      }

      .cls-2 {
        fill: #fff;
      }
    </style>
  </defs>
  <g id="OBJECTS">
    <g>
      <rect class="cls-1" width="59.67" height="59.67" rx="11.21" ry="11.21"/>
      <g>
        <path class="cls-2" d="M13,23.24c.04-2.21.38-4.38,1.64-6.28,1.16-1.76,2.75-2.95,4.76-3.63,1.97-.66,4-.66,6.02-.67,3.9,0,7.8,0,11.7.04,2.19.02,4.29.48,6.14,1.72,2.09,1.39,3.36,3.37,3.79,5.82.25,1.45.37,2.94.38,4.41.02,4.2-.03,8.39-.09,12.59-.03,1.84-.44,3.62-1.41,5.22-1.17,1.92-2.83,3.19-4.98,3.88-1.95.63-3.96.65-5.96.65-3.83,0-7.65,0-11.48-.03-2.01-.01-3.96-.35-5.73-1.35-2.07-1.16-3.45-2.9-4.16-5.18-.48-1.54-.57-3.11-.64-4.7-.01-.28-.04-9.28.03-12.5ZM16.34,38.22c.17,1.65.87,3.12,2.26,4.19,1.36,1.05,2.95,1.37,4.56,1.4,5.15.12,10.31.31,15.45-.16,1.16-.11,2.22-.51,3.15-1.21,1.78-1.33,2.4-3.25,2.45-5.33.1-3.86.08-7.73.06-11.59,0-1.38-.07-2.77-.22-4.14-.16-1.5-.78-2.82-1.93-3.86-1.27-1.14-2.82-1.58-4.47-1.62-4.19-.08-8.39-.14-12.58-.12-1.54.01-3.1.02-4.6.51-2.56.82-3.95,2.76-4.14,5.16-.23,3.02-.2,14.81,0,16.75Z"/>
        <path class="cls-2" d="M30.24,21.01c4.79-.04,8.87,3.91,8.85,8.88-.02,4.95-4.16,8.84-8.93,8.8-4.88-.04-8.9-4.03-8.84-8.93.06-4.91,4.03-8.81,8.92-8.75ZM35.93,29.91c.1-3.03-2.51-5.76-5.71-5.76-3.14,0-5.73,2.58-5.73,5.63,0,3.24,2.53,5.78,5.77,5.77,3.09,0,5.66-2.57,5.67-5.64Z"/>
        <path class="cls-2" d="M39.4,22.71c-1.15.11-2.07-.93-2.1-2.02-.03-1.12.98-2.11,2.11-2.1,1.16.02,2.15.98,2.1,2.12-.04,1.04-.89,2.11-2.12,2Z"/>
      </g>
    </g>
  </g>
</svg>